<svg width="200" height="48" viewBox="0 0 200 48" fill="none" xmlns="http://www.w3.org/2000/svg">
  <!-- Optimized for light theme - dark colored logo -->

  <!-- Icon: Wolf + Shield -->
  <g transform="translate(24, 24)">
    <!-- Shield outline -->
    <path d="M0 -20C0 -20 -10 -16 -16 -10C-16 0 -16 10 0 18C16 10 16 0 16 -10C10 -16 0 -20 0 -20Z"
          fill="#6b21ff" opacity="0.15"/>
    <path d="M0 -20C0 -20 -10 -16 -16 -10C-16 0 -16 10 0 18C16 10 16 0 16 -10C10 -16 0 -20 0 -20Z"
          stroke="#6b21ff" stroke-width="1.5" stroke-linejoin="round"/>

    <!-- Wolf silhouette -->
    <g transform="scale(0.4)">
      <ellipse cx="0" cy="-5" rx="10" ry="12" fill="#1a1a2e"/>
      <path d="M-8 -15 L-6 -10 L-9 -9 Z" fill="#1a1a2e"/>
      <path d="M8 -15 L6 -10 L9 -9 Z" fill="#1a1a2e"/>
      <ellipse cx="0" cy="1" rx="6" ry="8" fill="#1a1a2e"/>
      <circle cx="-3" cy="-6" r="1.5" fill="#ffffff"/>
      <circle cx="3" cy="-6" r="1.5" fill="#ffffff"/>
      <circle cx="0" cy="3" r="1.5" fill="#ffffff"/>
      <ellipse cx="0" cy="12" rx="8" ry="9" fill="#1a1a2e" opacity="0.9"/>
    </g>
  </g>

  <!-- Text: WolfGuard -->
  <text x="54" y="32" font-family="Arial, sans-serif" font-size="24" font-weight="700"
        fill="#1a1a2e" letter-spacing="-0.5">
    Wolf
  </text>
  <text x="106" y="32" font-family="Arial, sans-serif" font-size="24" font-weight="700"
        fill="#6b21ff" letter-spacing="-0.5">
    Guard
  </text>
</svg>
