<svg width="200" height="48" viewBox="0 0 200 48" fill="none" xmlns="http://www.w3.org/2000/svg">
  <!-- Monochrome version - single color -->

  <!-- Icon: Wolf + Shield -->
  <g transform="translate(24, 24)">
    <!-- Shield outline -->
    <path d="M0 -20C0 -20 -10 -16 -16 -10C-16 0 -16 10 0 18C16 10 16 0 16 -10C10 -16 0 -20 0 -20Z"
          fill="currentColor" opacity="0.1"/>
    <path d="M0 -20C0 -20 -10 -16 -16 -10C-16 0 -16 10 0 18C16 10 16 0 16 -10C10 -16 0 -20 0 -20Z"
          stroke="currentColor" stroke-width="1.5" stroke-linejoin="round"/>

    <!-- Wolf silhouette -->
    <g transform="scale(0.4)">
      <ellipse cx="0" cy="-5" rx="10" ry="12" fill="currentColor"/>
      <path d="M-8 -15 L-6 -10 L-9 -9 Z" fill="currentColor"/>
      <path d="M8 -15 L6 -10 L9 -9 Z" fill="currentColor"/>
      <ellipse cx="0" cy="1" rx="6" ry="8" fill="currentColor"/>
      <ellipse cx="0" cy="12" rx="8" ry="9" fill="currentColor" opacity="0.9"/>
    </g>
  </g>

  <!-- Text: WolfGuard -->
  <text x="54" y="32" font-family="Arial, sans-serif" font-size="24" font-weight="700"
        fill="currentColor" letter-spacing="-0.5">
    WolfGuard
  </text>
</svg>
